<mxfile host="app.diagrams.net" agent="Mozilla/5.0 (Windows NT 10.0; Win64; x64) AppleWebKit/537.36 (KHTML, like Gecko) Chrome/134.0.0.0 Safari/537.36 Edg/134.0.0.0" version="26.0.16">
  <diagram name="Page-1" id="98cvswhpEHXC24Bn2miE">
    <mxGraphModel dx="1775" dy="676" grid="1" gridSize="10" guides="1" tooltips="1" connect="1" arrows="1" fold="1" page="0" pageScale="1" pageWidth="850" pageHeight="1100" math="0" shadow="0">
      <root>
        <mxCell id="0" />
        <mxCell id="1" parent="0" />
        <mxCell id="5q4nl_bfFsXVFqzO0uTr-1" value="Actor" style="shape=umlActor;verticalLabelPosition=bottom;verticalAlign=top;html=1;outlineConnect=0;" parent="1" vertex="1">
          <mxGeometry x="-150" y="50" width="30" height="60" as="geometry" />
        </mxCell>
        <mxCell id="5q4nl_bfFsXVFqzO0uTr-2" value="" style="endArrow=none;html=1;rounded=0;" parent="1" edge="1">
          <mxGeometry width="50" height="50" relative="1" as="geometry">
            <mxPoint x="-120" y="2642" as="sourcePoint" />
            <mxPoint x="-135.5" y="160" as="targetPoint" />
          </mxGeometry>
        </mxCell>
        <mxCell id="5q4nl_bfFsXVFqzO0uTr-3" value="" style="endArrow=none;html=1;rounded=0;" parent="1" edge="1">
          <mxGeometry width="50" height="50" relative="1" as="geometry">
            <mxPoint x="360" y="2644" as="sourcePoint" />
            <mxPoint x="360" y="160" as="targetPoint" />
          </mxGeometry>
        </mxCell>
        <mxCell id="5q4nl_bfFsXVFqzO0uTr-4" value="" style="endArrow=none;html=1;rounded=0;" parent="1" edge="1">
          <mxGeometry width="50" height="50" relative="1" as="geometry">
            <mxPoint x="800" y="2641" as="sourcePoint" />
            <mxPoint x="799.5" y="160" as="targetPoint" />
          </mxGeometry>
        </mxCell>
        <mxCell id="5q4nl_bfFsXVFqzO0uTr-6" value="Service" style="shape=process;whiteSpace=wrap;html=1;backgroundOutline=1;" parent="1" vertex="1">
          <mxGeometry x="300" y="60" width="120" height="60" as="geometry" />
        </mxCell>
        <mxCell id="5q4nl_bfFsXVFqzO0uTr-7" value="dB" style="shape=cylinder3;whiteSpace=wrap;html=1;boundedLbl=1;backgroundOutline=1;size=15;" parent="1" vertex="1">
          <mxGeometry x="770" y="40" width="60" height="80" as="geometry" />
        </mxCell>
        <mxCell id="5q4nl_bfFsXVFqzO0uTr-8" value="PreparationTechnique" style="swimlane;fontStyle=0;childLayout=stackLayout;horizontal=1;startSize=30;horizontalStack=0;resizeParent=1;resizeParentMax=0;resizeLast=0;collapsible=1;marginBottom=0;whiteSpace=wrap;html=1;" parent="1" vertex="1">
          <mxGeometry x="540" y="160" width="140" height="90" as="geometry" />
        </mxCell>
        <mxCell id="5q4nl_bfFsXVFqzO0uTr-9" value="code" style="text;strokeColor=none;fillColor=none;align=left;verticalAlign=middle;spacingLeft=4;spacingRight=4;overflow=hidden;points=[[0,0.5],[1,0.5]];portConstraint=eastwest;rotatable=0;whiteSpace=wrap;html=1;" parent="5q4nl_bfFsXVFqzO0uTr-8" vertex="1">
          <mxGeometry y="30" width="140" height="30" as="geometry" />
        </mxCell>
        <mxCell id="5q4nl_bfFsXVFqzO0uTr-10" value="description" style="text;strokeColor=none;fillColor=none;align=left;verticalAlign=middle;spacingLeft=4;spacingRight=4;overflow=hidden;points=[[0,0.5],[1,0.5]];portConstraint=eastwest;rotatable=0;whiteSpace=wrap;html=1;" parent="5q4nl_bfFsXVFqzO0uTr-8" vertex="1">
          <mxGeometry y="60" width="140" height="30" as="geometry" />
        </mxCell>
        <mxCell id="5q4nl_bfFsXVFqzO0uTr-13" value="PreparationTechniqueDTO" style="swimlane;fontStyle=0;childLayout=stackLayout;horizontal=1;startSize=30;horizontalStack=0;resizeParent=1;resizeParentMax=0;resizeLast=0;collapsible=1;marginBottom=0;whiteSpace=wrap;html=1;" parent="1" vertex="1">
          <mxGeometry y="160" width="180" height="90" as="geometry" />
        </mxCell>
        <mxCell id="5q4nl_bfFsXVFqzO0uTr-14" value="code" style="text;strokeColor=none;fillColor=none;align=left;verticalAlign=middle;spacingLeft=4;spacingRight=4;overflow=hidden;points=[[0,0.5],[1,0.5]];portConstraint=eastwest;rotatable=0;whiteSpace=wrap;html=1;" parent="5q4nl_bfFsXVFqzO0uTr-13" vertex="1">
          <mxGeometry y="30" width="180" height="30" as="geometry" />
        </mxCell>
        <mxCell id="5q4nl_bfFsXVFqzO0uTr-15" value="description" style="text;strokeColor=none;fillColor=none;align=left;verticalAlign=middle;spacingLeft=4;spacingRight=4;overflow=hidden;points=[[0,0.5],[1,0.5]];portConstraint=eastwest;rotatable=0;whiteSpace=wrap;html=1;" parent="5q4nl_bfFsXVFqzO0uTr-13" vertex="1">
          <mxGeometry y="60" width="180" height="30" as="geometry" />
        </mxCell>
        <mxCell id="5q4nl_bfFsXVFqzO0uTr-16" value="" style="shape=flexArrow;endArrow=classic;startArrow=classic;html=1;rounded=0;" parent="1" edge="1">
          <mxGeometry width="100" height="100" relative="1" as="geometry">
            <mxPoint x="190" y="200" as="sourcePoint" />
            <mxPoint x="330" y="200" as="targetPoint" />
          </mxGeometry>
        </mxCell>
        <mxCell id="5q4nl_bfFsXVFqzO0uTr-18" value="" style="shape=flexArrow;endArrow=classic;startArrow=classic;html=1;rounded=0;" parent="1" edge="1">
          <mxGeometry width="100" height="100" relative="1" as="geometry">
            <mxPoint x="380" y="200" as="sourcePoint" />
            <mxPoint x="520" y="200" as="targetPoint" />
          </mxGeometry>
        </mxCell>
        <mxCell id="5q4nl_bfFsXVFqzO0uTr-20" value="FoodType" style="swimlane;fontStyle=0;childLayout=stackLayout;horizontal=1;startSize=30;horizontalStack=0;resizeParent=1;resizeParentMax=0;resizeLast=0;collapsible=1;marginBottom=0;whiteSpace=wrap;html=1;" parent="1" vertex="1">
          <mxGeometry x="550" y="1301" width="140" height="150" as="geometry" />
        </mxCell>
        <mxCell id="5q4nl_bfFsXVFqzO0uTr-21" value="id" style="text;strokeColor=none;fillColor=none;align=left;verticalAlign=middle;spacingLeft=4;spacingRight=4;overflow=hidden;points=[[0,0.5],[1,0.5]];portConstraint=eastwest;rotatable=0;whiteSpace=wrap;html=1;" parent="5q4nl_bfFsXVFqzO0uTr-20" vertex="1">
          <mxGeometry y="30" width="140" height="30" as="geometry" />
        </mxCell>
        <mxCell id="5q4nl_bfFsXVFqzO0uTr-22" value="name" style="text;strokeColor=none;fillColor=none;align=left;verticalAlign=middle;spacingLeft=4;spacingRight=4;overflow=hidden;points=[[0,0.5],[1,0.5]];portConstraint=eastwest;rotatable=0;whiteSpace=wrap;html=1;" parent="5q4nl_bfFsXVFqzO0uTr-20" vertex="1">
          <mxGeometry y="60" width="140" height="30" as="geometry" />
        </mxCell>
        <mxCell id="5q4nl_bfFsXVFqzO0uTr-23" value="description" style="text;strokeColor=none;fillColor=none;align=left;verticalAlign=middle;spacingLeft=4;spacingRight=4;overflow=hidden;points=[[0,0.5],[1,0.5]];portConstraint=eastwest;rotatable=0;whiteSpace=wrap;html=1;" parent="5q4nl_bfFsXVFqzO0uTr-20" vertex="1">
          <mxGeometry y="90" width="140" height="30" as="geometry" />
        </mxCell>
        <mxCell id="5q4nl_bfFsXVFqzO0uTr-25" value="FoodCategory" style="text;strokeColor=none;fillColor=none;align=left;verticalAlign=middle;spacingLeft=4;spacingRight=4;overflow=hidden;points=[[0,0.5],[1,0.5]];portConstraint=eastwest;rotatable=0;whiteSpace=wrap;html=1;" parent="5q4nl_bfFsXVFqzO0uTr-20" vertex="1">
          <mxGeometry y="120" width="140" height="30" as="geometry" />
        </mxCell>
        <mxCell id="5q4nl_bfFsXVFqzO0uTr-26" value="FoodCategory" style="swimlane;fontStyle=0;childLayout=stackLayout;horizontal=1;startSize=30;horizontalStack=0;resizeParent=1;resizeParentMax=0;resizeLast=0;collapsible=1;marginBottom=0;whiteSpace=wrap;html=1;" parent="1" vertex="1">
          <mxGeometry x="550" y="616" width="140" height="150" as="geometry" />
        </mxCell>
        <mxCell id="5q4nl_bfFsXVFqzO0uTr-27" value="id" style="text;strokeColor=none;fillColor=none;align=left;verticalAlign=middle;spacingLeft=4;spacingRight=4;overflow=hidden;points=[[0,0.5],[1,0.5]];portConstraint=eastwest;rotatable=0;whiteSpace=wrap;html=1;" parent="5q4nl_bfFsXVFqzO0uTr-26" vertex="1">
          <mxGeometry y="30" width="140" height="30" as="geometry" />
        </mxCell>
        <mxCell id="5q4nl_bfFsXVFqzO0uTr-28" value="name" style="text;strokeColor=none;fillColor=none;align=left;verticalAlign=middle;spacingLeft=4;spacingRight=4;overflow=hidden;points=[[0,0.5],[1,0.5]];portConstraint=eastwest;rotatable=0;whiteSpace=wrap;html=1;" parent="5q4nl_bfFsXVFqzO0uTr-26" vertex="1">
          <mxGeometry y="60" width="140" height="30" as="geometry" />
        </mxCell>
        <mxCell id="5q4nl_bfFsXVFqzO0uTr-29" value="description" style="text;strokeColor=none;fillColor=none;align=left;verticalAlign=middle;spacingLeft=4;spacingRight=4;overflow=hidden;points=[[0,0.5],[1,0.5]];portConstraint=eastwest;rotatable=0;whiteSpace=wrap;html=1;" parent="5q4nl_bfFsXVFqzO0uTr-26" vertex="1">
          <mxGeometry y="90" width="140" height="30" as="geometry" />
        </mxCell>
        <mxCell id="5q4nl_bfFsXVFqzO0uTr-30" value="List&amp;lt;FoodType&amp;gt;" style="text;strokeColor=none;fillColor=none;align=left;verticalAlign=middle;spacingLeft=4;spacingRight=4;overflow=hidden;points=[[0,0.5],[1,0.5]];portConstraint=eastwest;rotatable=0;whiteSpace=wrap;html=1;" parent="5q4nl_bfFsXVFqzO0uTr-26" vertex="1">
          <mxGeometry y="120" width="140" height="30" as="geometry" />
        </mxCell>
        <mxCell id="5q4nl_bfFsXVFqzO0uTr-31" value="" style="shape=flexArrow;endArrow=classic;startArrow=classic;html=1;rounded=0;" parent="1" edge="1">
          <mxGeometry width="100" height="100" relative="1" as="geometry">
            <mxPoint x="390" y="696" as="sourcePoint" />
            <mxPoint x="530" y="696" as="targetPoint" />
          </mxGeometry>
        </mxCell>
        <mxCell id="5q4nl_bfFsXVFqzO0uTr-32" value="FoodCategoryDTOSimple" style="swimlane;fontStyle=0;childLayout=stackLayout;horizontal=1;startSize=30;horizontalStack=0;resizeParent=1;resizeParentMax=0;resizeLast=0;collapsible=1;marginBottom=0;whiteSpace=wrap;html=1;" parent="1" vertex="1">
          <mxGeometry y="496" width="180" height="120" as="geometry" />
        </mxCell>
        <mxCell id="5q4nl_bfFsXVFqzO0uTr-33" value="id" style="text;strokeColor=none;fillColor=none;align=left;verticalAlign=middle;spacingLeft=4;spacingRight=4;overflow=hidden;points=[[0,0.5],[1,0.5]];portConstraint=eastwest;rotatable=0;whiteSpace=wrap;html=1;" parent="5q4nl_bfFsXVFqzO0uTr-32" vertex="1">
          <mxGeometry y="30" width="180" height="30" as="geometry" />
        </mxCell>
        <mxCell id="5q4nl_bfFsXVFqzO0uTr-34" value="name" style="text;strokeColor=none;fillColor=none;align=left;verticalAlign=middle;spacingLeft=4;spacingRight=4;overflow=hidden;points=[[0,0.5],[1,0.5]];portConstraint=eastwest;rotatable=0;whiteSpace=wrap;html=1;" parent="5q4nl_bfFsXVFqzO0uTr-32" vertex="1">
          <mxGeometry y="60" width="180" height="30" as="geometry" />
        </mxCell>
        <mxCell id="5q4nl_bfFsXVFqzO0uTr-35" value="description" style="text;strokeColor=none;fillColor=none;align=left;verticalAlign=middle;spacingLeft=4;spacingRight=4;overflow=hidden;points=[[0,0.5],[1,0.5]];portConstraint=eastwest;rotatable=0;whiteSpace=wrap;html=1;" parent="5q4nl_bfFsXVFqzO0uTr-32" vertex="1">
          <mxGeometry y="90" width="180" height="30" as="geometry" />
        </mxCell>
        <mxCell id="5q4nl_bfFsXVFqzO0uTr-37" value="" style="shape=flexArrow;endArrow=classic;html=1;rounded=0;" parent="1" edge="1">
          <mxGeometry width="50" height="50" relative="1" as="geometry">
            <mxPoint x="320" y="536" as="sourcePoint" />
            <mxPoint x="200" y="536" as="targetPoint" />
          </mxGeometry>
        </mxCell>
        <mxCell id="5q4nl_bfFsXVFqzO0uTr-39" value="Used when lists of requested&lt;div&gt;Can be used when creating?&lt;/div&gt;" style="shape=callout;whiteSpace=wrap;html=1;perimeter=calloutPerimeter;" parent="1" vertex="1">
          <mxGeometry x="-120" y="356" width="120" height="100" as="geometry" />
        </mxCell>
        <mxCell id="5q4nl_bfFsXVFqzO0uTr-40" value="" style="endArrow=none;html=1;rounded=0;exitX=0;exitY=0;exitDx=60;exitDy=100;exitPerimeter=0;entryX=0.5;entryY=0;entryDx=0;entryDy=0;" parent="1" source="5q4nl_bfFsXVFqzO0uTr-39" target="5q4nl_bfFsXVFqzO0uTr-32" edge="1">
          <mxGeometry width="50" height="50" relative="1" as="geometry">
            <mxPoint x="460" y="636" as="sourcePoint" />
            <mxPoint x="510" y="586" as="targetPoint" />
          </mxGeometry>
        </mxCell>
        <mxCell id="5q4nl_bfFsXVFqzO0uTr-41" value="" style="shape=flexArrow;endArrow=classic;html=1;rounded=0;" parent="1" edge="1">
          <mxGeometry width="50" height="50" relative="1" as="geometry">
            <mxPoint x="200" y="576" as="sourcePoint" />
            <mxPoint x="320" y="576" as="targetPoint" />
          </mxGeometry>
        </mxCell>
        <mxCell id="5q4nl_bfFsXVFqzO0uTr-42" value="FoodCategoryDTOComplex" style="swimlane;fontStyle=0;childLayout=stackLayout;horizontal=1;startSize=30;horizontalStack=0;resizeParent=1;resizeParentMax=0;resizeLast=0;collapsible=1;marginBottom=0;whiteSpace=wrap;html=1;" parent="1" vertex="1">
          <mxGeometry y="776" width="180" height="150" as="geometry" />
        </mxCell>
        <mxCell id="5q4nl_bfFsXVFqzO0uTr-43" value="id" style="text;strokeColor=none;fillColor=none;align=left;verticalAlign=middle;spacingLeft=4;spacingRight=4;overflow=hidden;points=[[0,0.5],[1,0.5]];portConstraint=eastwest;rotatable=0;whiteSpace=wrap;html=1;" parent="5q4nl_bfFsXVFqzO0uTr-42" vertex="1">
          <mxGeometry y="30" width="180" height="30" as="geometry" />
        </mxCell>
        <mxCell id="5q4nl_bfFsXVFqzO0uTr-44" value="name" style="text;strokeColor=none;fillColor=none;align=left;verticalAlign=middle;spacingLeft=4;spacingRight=4;overflow=hidden;points=[[0,0.5],[1,0.5]];portConstraint=eastwest;rotatable=0;whiteSpace=wrap;html=1;" parent="5q4nl_bfFsXVFqzO0uTr-42" vertex="1">
          <mxGeometry y="60" width="180" height="30" as="geometry" />
        </mxCell>
        <mxCell id="5q4nl_bfFsXVFqzO0uTr-45" value="description" style="text;strokeColor=none;fillColor=none;align=left;verticalAlign=middle;spacingLeft=4;spacingRight=4;overflow=hidden;points=[[0,0.5],[1,0.5]];portConstraint=eastwest;rotatable=0;whiteSpace=wrap;html=1;" parent="5q4nl_bfFsXVFqzO0uTr-42" vertex="1">
          <mxGeometry y="90" width="180" height="30" as="geometry" />
        </mxCell>
        <mxCell id="5q4nl_bfFsXVFqzO0uTr-48" value="List&amp;lt;FoodTypeDTOSimple&amp;gt;" style="text;strokeColor=none;fillColor=none;align=left;verticalAlign=middle;spacingLeft=4;spacingRight=4;overflow=hidden;points=[[0,0.5],[1,0.5]];portConstraint=eastwest;rotatable=0;whiteSpace=wrap;html=1;" parent="5q4nl_bfFsXVFqzO0uTr-42" vertex="1">
          <mxGeometry y="120" width="180" height="30" as="geometry" />
        </mxCell>
        <mxCell id="5q4nl_bfFsXVFqzO0uTr-46" value="Used when singular requested.&lt;div&gt;&lt;br&gt;&lt;div&gt;Contains List of food Types&lt;/div&gt;&lt;/div&gt;" style="shape=callout;whiteSpace=wrap;html=1;perimeter=calloutPerimeter;" parent="1" vertex="1">
          <mxGeometry x="-120" y="636" width="120" height="110" as="geometry" />
        </mxCell>
        <mxCell id="5q4nl_bfFsXVFqzO0uTr-47" value="" style="endArrow=none;html=1;rounded=0;exitX=0;exitY=0;exitDx=60;exitDy=110;exitPerimeter=0;entryX=0.5;entryY=0;entryDx=0;entryDy=0;" parent="1" source="5q4nl_bfFsXVFqzO0uTr-46" target="5q4nl_bfFsXVFqzO0uTr-42" edge="1">
          <mxGeometry width="50" height="50" relative="1" as="geometry">
            <mxPoint x="460" y="636" as="sourcePoint" />
            <mxPoint x="510" y="586" as="targetPoint" />
          </mxGeometry>
        </mxCell>
        <mxCell id="5q4nl_bfFsXVFqzO0uTr-49" value="" style="shape=flexArrow;endArrow=classic;html=1;rounded=0;" parent="1" edge="1">
          <mxGeometry width="50" height="50" relative="1" as="geometry">
            <mxPoint x="330" y="850.5" as="sourcePoint" />
            <mxPoint x="210" y="850.5" as="targetPoint" />
          </mxGeometry>
        </mxCell>
        <mxCell id="5q4nl_bfFsXVFqzO0uTr-50" value="" style="shape=curlyBracket;whiteSpace=wrap;html=1;rounded=1;flipH=1;labelPosition=right;verticalLabelPosition=middle;align=left;verticalAlign=middle;" parent="1" vertex="1">
          <mxGeometry x="370" y="456" width="20" height="480" as="geometry" />
        </mxCell>
        <mxCell id="5q4nl_bfFsXVFqzO0uTr-51" value="" style="shape=flexArrow;endArrow=classic;startArrow=classic;html=1;rounded=0;" parent="1" edge="1">
          <mxGeometry width="100" height="100" relative="1" as="geometry">
            <mxPoint x="390" y="1376" as="sourcePoint" />
            <mxPoint x="530" y="1376" as="targetPoint" />
          </mxGeometry>
        </mxCell>
        <mxCell id="5q4nl_bfFsXVFqzO0uTr-52" value="" style="shape=curlyBracket;whiteSpace=wrap;html=1;rounded=1;flipH=1;labelPosition=right;verticalLabelPosition=middle;align=left;verticalAlign=middle;" parent="1" vertex="1">
          <mxGeometry x="370" y="1096" width="20" height="560" as="geometry" />
        </mxCell>
        <mxCell id="5q4nl_bfFsXVFqzO0uTr-53" value="FoodTypeDTOComplex" style="swimlane;fontStyle=0;childLayout=stackLayout;horizontal=1;startSize=30;horizontalStack=0;resizeParent=1;resizeParentMax=0;resizeLast=0;collapsible=1;marginBottom=0;whiteSpace=wrap;html=1;" parent="1" vertex="1">
          <mxGeometry y="1506" width="180" height="150" as="geometry" />
        </mxCell>
        <mxCell id="5q4nl_bfFsXVFqzO0uTr-54" value="id" style="text;strokeColor=none;fillColor=none;align=left;verticalAlign=middle;spacingLeft=4;spacingRight=4;overflow=hidden;points=[[0,0.5],[1,0.5]];portConstraint=eastwest;rotatable=0;whiteSpace=wrap;html=1;" parent="5q4nl_bfFsXVFqzO0uTr-53" vertex="1">
          <mxGeometry y="30" width="180" height="30" as="geometry" />
        </mxCell>
        <mxCell id="5q4nl_bfFsXVFqzO0uTr-55" value="name" style="text;strokeColor=none;fillColor=none;align=left;verticalAlign=middle;spacingLeft=4;spacingRight=4;overflow=hidden;points=[[0,0.5],[1,0.5]];portConstraint=eastwest;rotatable=0;whiteSpace=wrap;html=1;" parent="5q4nl_bfFsXVFqzO0uTr-53" vertex="1">
          <mxGeometry y="60" width="180" height="30" as="geometry" />
        </mxCell>
        <mxCell id="5q4nl_bfFsXVFqzO0uTr-56" value="description" style="text;strokeColor=none;fillColor=none;align=left;verticalAlign=middle;spacingLeft=4;spacingRight=4;overflow=hidden;points=[[0,0.5],[1,0.5]];portConstraint=eastwest;rotatable=0;whiteSpace=wrap;html=1;" parent="5q4nl_bfFsXVFqzO0uTr-53" vertex="1">
          <mxGeometry y="90" width="180" height="30" as="geometry" />
        </mxCell>
        <mxCell id="5q4nl_bfFsXVFqzO0uTr-57" value="FoodCategoryDTOSimple ??" style="text;strokeColor=none;fillColor=#FFF4C3;align=left;verticalAlign=middle;spacingLeft=4;spacingRight=4;overflow=hidden;points=[[0,0.5],[1,0.5]];portConstraint=eastwest;rotatable=0;whiteSpace=wrap;html=1;" parent="5q4nl_bfFsXVFqzO0uTr-53" vertex="1">
          <mxGeometry y="120" width="180" height="30" as="geometry" />
        </mxCell>
        <mxCell id="5q4nl_bfFsXVFqzO0uTr-58" value="Used when singular requested.&lt;div&gt;&lt;br&gt;&lt;div&gt;Use when creating?&lt;/div&gt;&lt;/div&gt;" style="shape=callout;whiteSpace=wrap;html=1;perimeter=calloutPerimeter;" parent="1" vertex="1">
          <mxGeometry x="-120" y="1370" width="120" height="100" as="geometry" />
        </mxCell>
        <mxCell id="5q4nl_bfFsXVFqzO0uTr-59" value="" style="endArrow=none;html=1;rounded=0;exitX=0.5;exitY=0;exitDx=0;exitDy=0;entryX=0;entryY=0;entryDx=60;entryDy=100;entryPerimeter=0;" parent="1" source="5q4nl_bfFsXVFqzO0uTr-53" target="5q4nl_bfFsXVFqzO0uTr-58" edge="1">
          <mxGeometry width="50" height="50" relative="1" as="geometry">
            <mxPoint x="460" y="1476" as="sourcePoint" />
            <mxPoint x="510" y="1426" as="targetPoint" />
          </mxGeometry>
        </mxCell>
        <mxCell id="5q4nl_bfFsXVFqzO0uTr-60" value="" style="shape=flexArrow;endArrow=classic;html=1;rounded=0;" parent="1" edge="1">
          <mxGeometry width="50" height="50" relative="1" as="geometry">
            <mxPoint x="330" y="1551" as="sourcePoint" />
            <mxPoint x="210" y="1551" as="targetPoint" />
          </mxGeometry>
        </mxCell>
        <mxCell id="5q4nl_bfFsXVFqzO0uTr-61" value="" style="shape=flexArrow;endArrow=classic;html=1;rounded=0;" parent="1" edge="1">
          <mxGeometry width="50" height="50" relative="1" as="geometry">
            <mxPoint x="210" y="1625.5" as="sourcePoint" />
            <mxPoint x="330" y="1625.5" as="targetPoint" />
          </mxGeometry>
        </mxCell>
        <mxCell id="5q4nl_bfFsXVFqzO0uTr-62" value="Do we wish to increase number of FoodType DTOs for new v get (exclude id)?&lt;div&gt;&lt;br&gt;&lt;/div&gt;" style="shape=callout;whiteSpace=wrap;html=1;perimeter=calloutPerimeter;fillColor=light-dark(#FFFFCC,var(--ge-dark-color, #121212));" parent="1" vertex="1">
          <mxGeometry x="100" y="1376" width="120" height="120" as="geometry" />
        </mxCell>
        <mxCell id="5q4nl_bfFsXVFqzO0uTr-65" value="FoodTypeDTOSimple" style="swimlane;fontStyle=0;childLayout=stackLayout;horizontal=1;startSize=30;horizontalStack=0;resizeParent=1;resizeParentMax=0;resizeLast=0;collapsible=1;marginBottom=0;whiteSpace=wrap;html=1;" parent="1" vertex="1">
          <mxGeometry y="1236" width="180" height="120" as="geometry" />
        </mxCell>
        <mxCell id="5q4nl_bfFsXVFqzO0uTr-66" value="id" style="text;strokeColor=none;fillColor=none;align=left;verticalAlign=middle;spacingLeft=4;spacingRight=4;overflow=hidden;points=[[0,0.5],[1,0.5]];portConstraint=eastwest;rotatable=0;whiteSpace=wrap;html=1;" parent="5q4nl_bfFsXVFqzO0uTr-65" vertex="1">
          <mxGeometry y="30" width="180" height="30" as="geometry" />
        </mxCell>
        <mxCell id="5q4nl_bfFsXVFqzO0uTr-67" value="name" style="text;strokeColor=none;fillColor=none;align=left;verticalAlign=middle;spacingLeft=4;spacingRight=4;overflow=hidden;points=[[0,0.5],[1,0.5]];portConstraint=eastwest;rotatable=0;whiteSpace=wrap;html=1;" parent="5q4nl_bfFsXVFqzO0uTr-65" vertex="1">
          <mxGeometry y="60" width="180" height="30" as="geometry" />
        </mxCell>
        <mxCell id="5q4nl_bfFsXVFqzO0uTr-68" value="description" style="text;strokeColor=none;fillColor=none;align=left;verticalAlign=middle;spacingLeft=4;spacingRight=4;overflow=hidden;points=[[0,0.5],[1,0.5]];portConstraint=eastwest;rotatable=0;whiteSpace=wrap;html=1;" parent="5q4nl_bfFsXVFqzO0uTr-65" vertex="1">
          <mxGeometry y="90" width="180" height="30" as="geometry" />
        </mxCell>
        <mxCell id="5q4nl_bfFsXVFqzO0uTr-70" value="" style="shape=flexArrow;endArrow=classic;html=1;rounded=0;" parent="1" edge="1">
          <mxGeometry width="50" height="50" relative="1" as="geometry">
            <mxPoint x="330" y="1276" as="sourcePoint" />
            <mxPoint x="210" y="1276" as="targetPoint" />
          </mxGeometry>
        </mxCell>
        <mxCell id="5q4nl_bfFsXVFqzO0uTr-71" value="Used when List requested.&lt;div&gt;&lt;br&gt;&lt;div&gt;Used as child of other complex elements&lt;/div&gt;&lt;/div&gt;" style="shape=callout;whiteSpace=wrap;html=1;perimeter=calloutPerimeter;" parent="1" vertex="1">
          <mxGeometry x="-120" y="1090" width="120" height="110" as="geometry" />
        </mxCell>
        <mxCell id="5q4nl_bfFsXVFqzO0uTr-72" value="" style="endArrow=none;html=1;rounded=0;exitX=0.5;exitY=0;exitDx=0;exitDy=0;entryX=0;entryY=0;entryDx=60;entryDy=90;entryPerimeter=0;" parent="1" source="5q4nl_bfFsXVFqzO0uTr-65" target="5q4nl_bfFsXVFqzO0uTr-71" edge="1">
          <mxGeometry width="50" height="50" relative="1" as="geometry">
            <mxPoint x="80" y="1226" as="sourcePoint" />
            <mxPoint x="240" y="1196" as="targetPoint" />
          </mxGeometry>
        </mxCell>
      </root>
    </mxGraphModel>
  </diagram>
</mxfile>
